<svg width="21" height="20" viewBox="0 0 21 20" fill="none" xmlns="http://www.w3.org/2000/svg">
<path d="M15.4937 1.66669V3.33335M5.49365 1.66669V3.33335" stroke="#808080" stroke-linecap="round" stroke-linejoin="round"/>
<path d="M10.49 10.8333H10.4975M10.49 14.1666H10.4975M13.8196 10.8333H13.8271M7.1604 10.8333H7.16788M7.1604 14.1666H7.16788" stroke="#808080" stroke-linecap="round" stroke-linejoin="round"/>
<path d="M3.4104 6.66669H17.5771" stroke="#808080" stroke-linecap="round" stroke-linejoin="round"/>
<path d="M2.5769 10.2027C2.5769 6.57162 2.5769 4.75607 3.62034 3.62803C4.66377 2.5 6.34315 2.5 9.7019 2.5H11.2852C14.644 2.5 16.3234 2.5 17.3668 3.62803C18.4102 4.75607 18.4102 6.57162 18.4102 10.2027V10.6307C18.4102 14.2617 18.4102 16.0772 17.3668 17.2053C16.3234 18.3333 14.644 18.3333 11.2852 18.3333H9.7019C6.34315 18.3333 4.66377 18.3333 3.62034 17.2053C2.5769 16.0772 2.5769 14.2617 2.5769 10.6307V10.2027Z" stroke="#808080" stroke-linecap="round" stroke-linejoin="round"/>
<path d="M2.99365 6.66669H17.9937" stroke="#808080" stroke-linecap="round" stroke-linejoin="round"/>
</svg>
