<svg width="21" height="20" viewBox="0 0 21 20" fill="none" xmlns="http://www.w3.org/2000/svg">
<path d="M10.4937 18.3333C7.15462 18.3333 5.48506 18.3333 4.44773 17.235C3.4104 16.1366 3.4104 14.3688 3.4104 10.8333C3.4104 7.29778 3.4104 5.53001 4.44773 4.43166C5.48506 3.33331 7.15462 3.33331 10.4937 3.33331C13.8328 3.33331 15.5024 3.33331 16.5397 4.43166C17.5771 5.53001 17.5771 7.29778 17.5771 10.8333C17.5771 14.3688 17.5771 16.1366 16.5397 17.235C15.5024 18.3333 13.8328 18.3333 10.4937 18.3333Z" stroke="#808080" stroke-linecap="round" stroke-linejoin="round"/>
<path d="M7.1604 3.33335V1.66669" stroke="#808080" stroke-linecap="round"/>
<path d="M13.8269 3.33335V1.66669" stroke="#808080" stroke-linecap="round"/>
<path d="M12.1753 7.9105C12.1753 8.831 11.4291 9.57716 10.5087 9.57716C9.58821 9.57716 8.84204 8.831 8.84204 7.9105C8.84204 6.99006 9.58821 6.2439 10.5087 6.2439C11.4291 6.2439 12.1753 6.99006 12.1753 7.9105Z" stroke="#808080" stroke-linecap="round" stroke-linejoin="round"/>
<path d="M7.21288 13.9301C8.09484 12.5723 9.4954 12.0635 10.5088 12.0645C11.5221 12.0656 12.8817 12.5723 13.7637 13.9301C13.8207 14.0179 13.8364 14.126 13.7849 14.2173C13.5787 14.583 12.9382 15.3088 12.4757 15.358C11.9442 15.4145 10.554 15.4224 10.5099 15.4227C10.4657 15.4224 9.03257 15.4145 8.50082 15.358C8.03827 15.3088 7.39787 14.583 7.19161 14.2173C7.14015 14.126 7.15587 14.0179 7.21288 13.9301Z" stroke="#808080" stroke-linecap="round" stroke-linejoin="round"/>
</svg>
