<svg width="101" height="70" viewBox="0 0 101 70" fill="none" xmlns="http://www.w3.org/2000/svg">
<path d="M41.3563 3.33331C39.183 3.54831 37.7196 4.03165 36.6263 5.12665C34.668 7.08831 34.668 10.2466 34.668 16.565V23.265C34.668 29.5816 34.668 32.7416 36.6263 34.705C38.5846 36.6683 41.738 36.6666 48.043 36.6666H51.388C57.693 36.6666 60.8463 36.6666 62.8046 34.705C64.583 32.9216 64.748 30.1766 64.763 24.9616" stroke="#6B047C" stroke-width="1.5" stroke-linecap="round" stroke-linejoin="round"/>
<path d="M48.0425 11.6666L49.7142 17.5C50.6475 19.35 51.8192 19.8333 54.7309 20C57.0459 19.9433 58.3892 19.67 59.5359 18.6733C60.3175 17.9933 60.6709 16.9683 60.8425 15.9483L61.4159 12.5M65.5959 9.16664V17.5M44.8342 8.22164C47.4792 6.02664 49.8359 4.8483 54.7242 3.55164C55.2757 3.40604 55.8559 3.40891 56.4059 3.55997C60.7325 4.74997 63.0692 5.80664 66.1992 8.15664C66.3325 8.25664 66.3725 8.4433 66.2792 8.58164C65.2575 10.085 62.9759 11.3033 57.3792 13.4733C56.2135 13.9219 54.9216 13.9147 53.7609 13.4533C47.8009 11.0866 45.0609 9.81997 44.7275 8.50497C44.7167 8.45249 44.721 8.39801 44.7398 8.34786C44.7587 8.29771 44.7914 8.25394 44.8342 8.22164Z" stroke="#6B047C" stroke-width="1.5" stroke-linecap="round" stroke-linejoin="round"/>
<path d="M25.179 54.1847H22.9631C22.8778 53.7112 22.7192 53.2945 22.4872 52.9347C22.2552 52.5748 21.9711 52.2694 21.6349 52.0185C21.2988 51.7675 20.9223 51.5781 20.5057 51.4503C20.0938 51.3224 19.6558 51.2585 19.1918 51.2585C18.3537 51.2585 17.6032 51.4692 16.9403 51.8906C16.2822 52.312 15.7614 52.9299 15.3778 53.7443C14.9991 54.5587 14.8097 55.553 14.8097 56.7273C14.8097 57.911 14.9991 58.91 15.3778 59.7244C15.7614 60.5388 16.2846 61.1544 16.9474 61.571C17.6103 61.9877 18.3561 62.196 19.1847 62.196C19.6439 62.196 20.0795 62.1345 20.4915 62.0114C20.9081 61.8835 21.2846 61.6965 21.6207 61.4503C21.9569 61.2041 22.241 60.9034 22.473 60.5483C22.7098 60.1884 22.8731 59.7765 22.9631 59.3125L25.179 59.3196C25.0606 60.0346 24.831 60.6927 24.4901 61.294C24.1539 61.8906 23.7206 62.4067 23.1903 62.8423C22.6648 63.2732 22.0634 63.607 21.3864 63.8438C20.7093 64.0805 19.9706 64.1989 19.1705 64.1989C17.911 64.1989 16.7888 63.9006 15.804 63.304C14.8191 62.7027 14.0426 61.8433 13.4744 60.7259C12.911 59.6084 12.6293 58.2756 12.6293 56.7273C12.6293 55.1742 12.9134 53.8414 13.4815 52.7287C14.0497 51.6113 14.8262 50.7543 15.8111 50.1577C16.7959 49.5563 17.9157 49.2557 19.1705 49.2557C19.9422 49.2557 20.6619 49.367 21.3295 49.5895C22.0019 49.8073 22.6056 50.1293 23.1406 50.5554C23.6757 50.9768 24.1184 51.4929 24.4688 52.1037C24.8191 52.7098 25.0559 53.4034 25.179 54.1847ZM31.8298 64.2202C30.807 64.2202 29.9145 63.9858 29.1522 63.517C28.3899 63.0483 27.798 62.3925 27.3766 61.5497C26.9552 60.7069 26.7445 59.7221 26.7445 58.5952C26.7445 57.4635 26.9552 56.474 27.3766 55.6264C27.798 54.7789 28.3899 54.1207 29.1522 53.652C29.9145 53.1832 30.807 52.9489 31.8298 52.9489C32.8525 52.9489 33.745 53.1832 34.5073 53.652C35.2696 54.1207 35.8615 54.7789 36.2829 55.6264C36.7043 56.474 36.915 57.4635 36.915 58.5952C36.915 59.7221 36.7043 60.7069 36.2829 61.5497C35.8615 62.3925 35.2696 63.0483 34.5073 63.517C33.745 63.9858 32.8525 64.2202 31.8298 64.2202ZM31.8369 62.4375C32.4997 62.4375 33.049 62.2623 33.4846 61.9119C33.9202 61.5616 34.2422 61.0952 34.4505 60.5128C34.6636 59.9304 34.7701 59.2888 34.7701 58.5881C34.7701 57.892 34.6636 57.2528 34.4505 56.6705C34.2422 56.0833 33.9202 55.6122 33.4846 55.2571C33.049 54.902 32.4997 54.7244 31.8369 54.7244C31.1692 54.7244 30.6153 54.902 30.1749 55.2571C29.7393 55.6122 29.415 56.0833 29.2019 56.6705C28.9936 57.2528 28.8894 57.892 28.8894 58.5881C28.8894 59.2888 28.9936 59.9304 29.2019 60.5128C29.415 61.0952 29.7393 61.5616 30.1749 61.9119C30.6153 62.2623 31.1692 62.4375 31.8369 62.4375ZM45.7959 59.4759V53.0909H47.9266V64H45.8385V62.1108H45.7249C45.4739 62.6932 45.0714 63.1785 44.5175 63.5668C43.9682 63.9503 43.284 64.142 42.4649 64.142C41.7642 64.142 41.1439 63.9882 40.6041 63.6804C40.0691 63.3679 39.6477 62.9062 39.3399 62.2955C39.0369 61.6847 38.8854 60.9295 38.8854 60.0298V53.0909H41.0089V59.7741C41.0089 60.5175 41.2149 61.1094 41.6268 61.5497C42.0388 61.9901 42.5738 62.2102 43.232 62.2102C43.6297 62.2102 44.025 62.1108 44.418 61.9119C44.8158 61.7131 45.1448 61.4124 45.4053 61.0099C45.6704 60.6075 45.8006 60.0961 45.7959 59.4759ZM50.3799 64V53.0909H52.4325V54.8239H52.5461C52.745 54.2367 53.0953 53.7751 53.5972 53.4389C54.1039 53.098 54.6768 52.9276 55.316 52.9276C55.4486 52.9276 55.6048 52.9323 55.7847 52.9418C55.9694 52.9512 56.1138 52.9631 56.218 52.9773V55.0085C56.1327 54.9848 55.9812 54.9588 55.7634 54.9304C55.5456 54.8973 55.3278 54.8807 55.11 54.8807C54.6081 54.8807 54.1607 54.9872 53.7677 55.2003C53.3794 55.4086 53.0717 55.6998 52.8444 56.0739C52.6171 56.4432 52.5035 56.8646 52.5035 57.3381V64H50.3799ZM65.8304 55.7543L63.9057 56.0952C63.8252 55.849 63.6974 55.6146 63.5222 55.392C63.3517 55.1695 63.1197 54.9872 62.8261 54.8452C62.5326 54.7031 62.1656 54.6321 61.7253 54.6321C61.124 54.6321 60.6221 54.767 60.2196 55.0369C59.8171 55.3021 59.6159 55.6454 59.6159 56.0668C59.6159 56.4313 59.7509 56.7249 60.0207 56.9474C60.2906 57.17 60.7262 57.3523 61.3276 57.4943L63.0605 57.892C64.0643 58.1241 64.8124 58.4815 65.3048 58.9645C65.7973 59.4474 66.0435 60.0748 66.0435 60.8466C66.0435 61.5 65.8541 62.0824 65.4753 62.5938C65.1012 63.1004 64.578 63.4981 63.9057 63.7869C63.2381 64.0758 62.4639 64.2202 61.5832 64.2202C60.3616 64.2202 59.365 63.9598 58.5932 63.4389C57.8214 62.9134 57.3479 62.1676 57.1727 61.2017L59.2253 60.8892C59.3531 61.4242 59.6159 61.8291 60.0136 62.1037C60.4114 62.3736 60.9298 62.5085 61.569 62.5085C62.2651 62.5085 62.8214 62.3641 63.2381 62.0753C63.6547 61.7817 63.8631 61.4242 63.8631 61.0028C63.8631 60.6619 63.7352 60.3755 63.4795 60.1435C63.2286 59.9115 62.8427 59.7363 62.3219 59.6179L60.4753 59.2131C59.4573 58.9811 58.7045 58.6117 58.2168 58.1051C57.7338 57.5985 57.4923 56.9569 57.4923 56.1804C57.4923 55.5365 57.6723 54.973 58.0321 54.4901C58.392 54.0071 58.8891 53.6307 59.5236 53.3608C60.1581 53.0862 60.8849 52.9489 61.704 52.9489C62.883 52.9489 63.811 53.2045 64.4881 53.7159C65.1652 54.2225 65.6126 54.902 65.8304 55.7543ZM72.68 64.2202C71.6052 64.2202 70.6796 63.9905 69.9031 63.5312C69.1313 63.0672 68.5347 62.4162 68.1133 61.5781C67.6966 60.7353 67.4883 59.7481 67.4883 58.6165C67.4883 57.4991 67.6966 56.5142 68.1133 55.6619C68.5347 54.8097 69.1218 54.1444 69.8746 53.6662C70.6322 53.188 71.5176 52.9489 72.5309 52.9489C73.1464 52.9489 73.743 53.0507 74.3207 53.2543C74.8983 53.4579 75.4168 53.7775 75.8761 54.2131C76.3353 54.6487 76.6976 55.2145 76.9627 55.9105C77.2279 56.6018 77.3604 57.4422 77.3604 58.4318V59.1847H68.6886V57.5938H75.2795C75.2795 57.035 75.1658 56.5402 74.9386 56.1094C74.7113 55.6738 74.3917 55.3305 73.9798 55.0795C73.5726 54.8286 73.0943 54.7031 72.5451 54.7031C71.9485 54.7031 71.4277 54.8499 70.9826 55.1435C70.5423 55.4323 70.2013 55.8111 69.9599 56.2798C69.7231 56.7438 69.6048 57.2481 69.6048 57.7926V59.0355C69.6048 59.7647 69.7326 60.3849 69.9883 60.8963C70.2487 61.4077 70.6109 61.7983 71.0749 62.0682C71.5389 62.3333 72.0811 62.4659 72.7013 62.4659C73.1038 62.4659 73.4708 62.4091 73.8022 62.2955C74.1336 62.1771 74.4201 62.0019 74.6616 61.7699C74.9031 61.5379 75.0877 61.2514 75.2156 60.9105L77.2255 61.2727C77.0645 61.8646 76.7757 62.383 76.359 62.8281C75.9471 63.2685 75.4286 63.6117 74.8036 63.858C74.1834 64.0994 73.4755 64.2202 72.68 64.2202ZM87.4913 55.7543L85.5666 56.0952C85.4861 55.849 85.3583 55.6146 85.1831 55.392C85.0126 55.1695 84.7806 54.9872 84.4871 54.8452C84.1935 54.7031 83.8266 54.6321 83.3862 54.6321C82.7849 54.6321 82.283 54.767 81.8805 55.0369C81.4781 55.3021 81.2768 55.6454 81.2768 56.0668C81.2768 56.4313 81.4118 56.7249 81.6817 56.9474C81.9516 57.17 82.3872 57.3523 82.9885 57.4943L84.7214 57.892C85.7252 58.1241 86.4733 58.4815 86.9658 58.9645C87.4582 59.4474 87.7044 60.0748 87.7044 60.8466C87.7044 61.5 87.515 62.0824 87.1362 62.5938C86.7622 63.1004 86.239 63.4981 85.5666 63.7869C84.899 64.0758 84.1249 64.2202 83.2442 64.2202C82.0226 64.2202 81.0259 63.9598 80.2541 63.4389C79.4823 62.9134 79.0089 62.1676 78.8337 61.2017L80.8862 60.8892C81.0141 61.4242 81.2768 61.8291 81.6746 62.1037C82.0723 62.3736 82.5908 62.5085 83.23 62.5085C83.926 62.5085 84.4823 62.3641 84.899 62.0753C85.3157 61.7817 85.524 61.4242 85.524 61.0028C85.524 60.6619 85.3962 60.3755 85.1405 60.1435C84.8895 59.9115 84.5036 59.7363 83.9828 59.6179L82.1362 59.2131C81.1182 58.9811 80.3654 58.6117 79.8777 58.1051C79.3947 57.5985 79.1533 56.9569 79.1533 56.1804C79.1533 55.5365 79.3332 54.973 79.693 54.4901C80.0529 54.0071 80.55 53.6307 81.1845 53.3608C81.819 53.0862 82.5458 52.9489 83.3649 52.9489C84.5439 52.9489 85.4719 53.2045 86.149 53.7159C86.8261 54.2225 87.2735 54.902 87.4913 55.7543Z" fill="#6B047C"/>
</svg>
