<svg width="21" height="21" viewBox="0 0 21 21" fill="none" xmlns="http://www.w3.org/2000/svg">
<path d="M18.8271 10.9522C18.8271 6.34985 15.0961 2.6189 10.4937 2.6189C5.89136 2.6189 2.1604 6.34985 2.1604 10.9522C2.1604 15.5546 5.89136 19.2856 10.4937 19.2856C15.0961 19.2856 18.8271 15.5546 18.8271 10.9522Z" stroke="#808080"/>
<path d="M10.8281 7.86704L13.2613 7.05594C13.9998 6.80977 14.3692 6.68668 14.5641 6.8816C14.759 7.07653 14.6359 7.44579 14.3897 8.18433L13.5786 10.6176C13.1591 11.8761 12.9493 12.5053 12.4981 12.9566C12.0468 13.4078 11.4176 13.6176 10.1591 14.0371L7.72583 14.8482C6.9873 15.0944 6.61803 15.2175 6.42311 15.0226C6.22818 14.8277 6.35127 14.4583 6.59745 13.7198L7.40854 11.2866C7.82804 10.0281 8.03779 9.39882 8.48905 8.94754C8.94032 8.49629 9.56957 8.28654 10.8281 7.86704Z" stroke="#808080" stroke-linecap="round" stroke-linejoin="round"/>
<path d="M10.4936 10.9521L10.4883 10.9575" stroke="#808080" stroke-linecap="round" stroke-linejoin="round"/>
</svg>
