<svg width="32" height="32" viewBox="0 0 32 32" fill="none" xmlns="http://www.w3.org/2000/svg">
<rect width="32" height="32" rx="8" fill="#FAFAFA"/>
<path d="M18.8269 15.8697C18.8269 15.6392 18.8269 15.524 18.8616 15.4213C18.9624 15.1229 19.2281 15.0072 19.4943 14.8859C19.7936 14.7496 19.9432 14.6815 20.0915 14.6695C20.2598 14.6559 20.4284 14.6921 20.5723 14.7729C20.763 14.8799 20.896 15.0833 21.0322 15.2487C21.6611 16.0125 21.9755 16.3945 22.0906 16.8157C22.1835 17.1556 22.1835 17.5111 22.0906 17.8509C21.9228 18.4653 21.3926 18.9803 21.0001 19.4569C20.7994 19.7007 20.699 19.8227 20.5723 19.8938C20.4284 19.9745 20.2598 20.0108 20.0915 19.9972C19.9432 19.9852 19.7936 19.9171 19.4943 19.7807C19.2281 19.6595 18.9624 19.5437 18.8616 19.2453C18.8269 19.1427 18.8269 19.0275 18.8269 18.797V15.8697Z" stroke="#808080"/>
<path d="M12.1603 15.8697C12.1603 15.5796 12.1521 15.3188 11.9175 15.1148C11.8322 15.0406 11.7191 14.9891 11.4929 14.886C11.1936 14.7497 11.044 14.6816 10.8957 14.6696C10.4509 14.6336 10.2115 14.9372 9.95501 15.2488C9.32609 16.0127 9.01163 16.3946 8.89656 16.8158C8.80371 17.1557 8.80371 17.5112 8.89656 17.8511C9.06439 18.4654 9.5946 18.9803 9.98706 19.4571C10.2344 19.7575 10.4708 20.0317 10.8957 19.9973C11.044 19.9853 11.1936 19.9171 11.4929 19.7809C11.7191 19.6778 11.8322 19.6263 11.9175 19.5521C12.1521 19.3481 12.1603 19.0873 12.1603 18.7971V15.8697Z" stroke="#808080"/>
<path d="M20.8269 15V14C20.8269 11.4227 18.4391 9.33333 15.4936 9.33333C12.5481 9.33333 10.1603 11.4227 10.1603 14V15" stroke="#808080" stroke-linecap="round" stroke-linejoin="round"/>
<path d="M20.8269 19.6667C20.8269 22.6667 18.1603 22.6667 15.4936 22.6667" stroke="#808080" stroke-linecap="round" stroke-linejoin="round"/>
</svg>
