<svg width="32" height="32" viewBox="0 0 32 32" fill="none" xmlns="http://www.w3.org/2000/svg">
<rect width="32" height="32" rx="8" fill="#FAFAFA"/>
<path d="M17.8397 16C17.8397 17.2887 16.7951 18.3333 15.5064 18.3333C14.2177 18.3333 13.1731 17.2887 13.1731 16C13.1731 14.7113 14.2177 13.6667 15.5064 13.6667C16.7951 13.6667 17.8397 14.7113 17.8397 16Z" stroke="#808080"/>
<path d="M21.5137 17.3977C21.8617 17.3039 22.0357 17.2569 22.1043 17.1672C22.1731 17.0775 22.1731 16.9332 22.1731 16.6446V15.3555C22.1731 15.0669 22.1731 14.9225 22.1043 14.8329C22.0356 14.7431 21.8617 14.6962 21.5137 14.6024C20.2135 14.2517 19.3997 12.8923 19.7353 11.6006C19.8275 11.2453 19.8737 11.0677 19.8296 10.9635C19.7855 10.8593 19.6591 10.7876 19.4062 10.644L18.2564 9.99115C18.0083 9.85025 17.8842 9.77981 17.7729 9.79481C17.6615 9.80981 17.5359 9.93515 17.2845 10.1858C16.3117 11.1563 14.7021 11.1563 13.7293 10.1858C13.478 9.93508 13.3524 9.80975 13.241 9.79474C13.1297 9.77974 13.0056 9.85019 12.7574 9.99108L11.6076 10.6439C11.3548 10.7875 11.2283 10.8593 11.1843 10.9634C11.1402 11.0676 11.1863 11.2452 11.2786 11.6005C11.614 12.8923 10.7996 14.2517 9.49909 14.6024C9.15115 14.6962 8.97719 14.7431 8.90846 14.8328C8.83974 14.9225 8.83974 15.0669 8.83974 15.3555V16.6446C8.83974 16.9332 8.83974 17.0775 8.90846 17.1672C8.97717 17.2569 9.15115 17.3039 9.49909 17.3977C10.7993 17.7483 11.6131 19.1077 11.2776 20.3995C11.1853 20.7547 11.1391 20.9323 11.1832 21.0365C11.2272 21.1407 11.3537 21.2125 11.6066 21.3561L12.7564 22.0089C13.0045 22.1498 13.1286 22.2203 13.24 22.2053C13.3514 22.1903 13.477 22.0649 13.7282 21.8142C14.7015 20.8429 16.3123 20.8429 17.2857 21.8141C17.5369 22.0649 17.6625 22.1902 17.7739 22.2052C17.8852 22.2202 18.0093 22.1497 18.2575 22.0089L19.4073 21.356C19.6602 21.2125 19.7867 21.1407 19.8307 21.0365C19.8747 20.9323 19.8286 20.7547 19.7363 20.3994C19.4005 19.1077 20.2137 17.7484 21.5137 17.3977Z" stroke="#808080" stroke-linecap="round"/>
</svg>
