<svg width="32" height="32" viewBox="0 0 32 32" fill="none" xmlns="http://www.w3.org/2000/svg">
<rect width="32" height="32" rx="8" fill="#FAFAFA"/>
<path d="M15.5064 22.6667C19.1883 22.6667 22.1731 19.6819 22.1731 16C22.1731 12.3181 19.1883 9.33334 15.5064 9.33334C11.8245 9.33334 8.83974 12.3181 8.83974 16C8.83974 19.6819 11.8245 22.6667 15.5064 22.6667Z" stroke="#808080" stroke-linecap="round" stroke-linejoin="round"/>
<path d="M13.5064 18.4558C14.903 17.5379 16.5091 18.0956 17.5064 19.3333" stroke="#808080" stroke-linecap="round" stroke-linejoin="round"/>
<path d="M12.1731 14.0071C12.1731 14.0071 13.1127 13.9223 13.637 14.3387M13.637 14.3387L13.4616 14.8951C13.3924 15.1146 13.5733 15.3333 13.824 15.3333C14.0875 15.3333 14.2615 15.0956 14.1259 14.8899C14.0056 14.7075 13.8418 14.5013 13.637 14.3387ZM16.8397 14.0071C16.8397 14.0071 17.7793 13.9223 18.3037 14.3387M18.3037 14.3387L18.1283 14.8951C18.0591 15.1146 18.2399 15.3333 18.4907 15.3333C18.7542 15.3333 18.9282 15.0956 18.7925 14.8899C18.6723 14.7075 18.5085 14.5013 18.3037 14.3387Z" stroke="#808080" stroke-linecap="round" stroke-linejoin="round"/>
</svg>
