<svg width="33" height="33" viewBox="0 0 33 33" fill="none" xmlns="http://www.w3.org/2000/svg">
<rect x="0.493652" y="0.952148" width="32" height="32" rx="8" fill="#FAFAFA"/>
<path d="M24.8271 16.9522C24.8271 12.3499 21.0961 8.6189 16.4937 8.6189C11.8914 8.6189 8.1604 12.3499 8.1604 16.9522C8.1604 21.5546 11.8914 25.2856 16.4937 25.2856C21.0961 25.2856 24.8271 21.5546 24.8271 16.9522Z" stroke="#808080"/>
<path d="M16.8281 13.867L19.2613 13.0559C19.9998 12.8098 20.3692 12.6867 20.5641 12.8816C20.759 13.0765 20.6359 13.4458 20.3897 14.1843L19.5786 16.6176C19.1591 17.8761 18.9493 18.5053 18.4981 18.9566C18.0468 19.4078 17.4176 19.6176 16.1591 20.0371L13.7258 20.8482C12.9873 21.0944 12.618 21.2175 12.4231 21.0226C12.2282 20.8277 12.3513 20.4583 12.5974 19.7198L13.4085 17.2866C13.828 16.0281 14.0378 15.3988 14.489 14.9475C14.9403 14.4963 15.5696 14.2865 16.8281 13.867Z" stroke="#808080" stroke-linecap="round" stroke-linejoin="round"/>
<path d="M16.4936 16.9521L16.4883 16.9575" stroke="#808080" stroke-linecap="round" stroke-linejoin="round"/>
</svg>
