<svg width="13" height="15" viewBox="0 0 13 15" fill="none" xmlns="http://www.w3.org/2000/svg">
<path d="M0.6604 7.63333C0.6604 6.50167 0.660401 5.93583 0.888734 5.43833C1.1179 4.94083 1.54707 4.57333 2.40623 3.83667L3.23957 3.1225C4.79373 1.79167 5.56873 1.125 6.49373 1.125C7.41873 1.125 8.19457 1.79083 9.7479 3.12167L10.5812 3.83583C11.4396 4.5725 11.8696 4.94 12.0979 5.4375C12.3271 5.935 12.3271 6.50083 12.3271 7.6325V11.1667C12.3271 12.7383 12.3271 13.5233 11.8387 14.0117C11.3504 14.5 10.5654 14.5 8.99373 14.5H3.99373C2.42207 14.5 1.63707 14.5 1.14873 14.0117C0.6604 13.5233 0.6604 12.7383 0.6604 11.1667V7.63333Z" stroke="#808080"/>
<path d="M8.57707 14.5V10.3333C8.57707 10.1123 8.48927 9.90036 8.33299 9.74408C8.17671 9.5878 7.96475 9.5 7.74373 9.5H5.24373C5.02272 9.5 4.81076 9.5878 4.65448 9.74408C4.4982 9.90036 4.4104 10.1123 4.4104 10.3333V14.5" stroke="#808080" stroke-linecap="round" stroke-linejoin="round"/>
</svg>
