<svg width="21" height="20" viewBox="0 0 21 20" fill="none" xmlns="http://www.w3.org/2000/svg">
<path d="M14.1942 17.7898L14.6544 17.2147C15.0587 16.7093 15.9174 16.75 16.259 17.2907C16.6698 17.9412 17.6847 17.8119 17.9661 17.2135C17.9807 17.1824 17.9441 17.2602 17.9754 16.991C18.0067 16.7217 17.9937 16.6603 17.9676 16.5373L16.365 8.97008C15.9622 7.06829 15.7608 6.11738 15.0681 5.55869C14.3754 5 13.3977 5 11.4423 5H9.54499C7.58963 5 6.61194 5 5.9192 5.55869C5.22646 6.11738 5.02508 7.06829 4.62231 8.97008L3.01974 16.5373C2.99369 16.6603 2.98066 16.7217 3.01194 16.991C3.0432 17.2602 3.0066 17.1824 3.02124 17.2135C3.30269 17.8119 4.31745 17.9412 4.72836 17.2907C5.06992 16.75 5.92854 16.7093 6.33289 17.2147L6.7931 17.7898C7.37294 18.5145 8.58381 18.5145 9.16365 17.7898L9.23599 17.6993C9.85124 16.9304 11.1361 16.9304 11.7513 17.6993L11.8237 17.7898C12.4035 18.5145 13.6144 18.5145 14.1942 17.7898Z" stroke="#808080" stroke-linejoin="round"/>
<path d="M2.5632 7.91669C2.07545 7.41001 2.16727 6.75746 2.16727 5.12649C2.16727 3.49552 2.16727 2.68004 2.65503 2.17336C3.14279 1.66669 3.92782 1.66669 5.49788 1.66669H15.4897C17.0597 1.66669 17.8448 1.66669 18.3326 2.17336C18.8203 2.68004 18.8203 3.49552 18.8203 5.12649C18.8203 6.75746 18.9116 7.41001 18.4238 7.91669" stroke="#808080" stroke-linecap="round"/>
<path d="M10.4937 8.33331H7.99365" stroke="#808080" stroke-linecap="round" stroke-linejoin="round"/>
<path d="M12.1604 11.6667H7.1604" stroke="#808080" stroke-linecap="round" stroke-linejoin="round"/>
</svg>
