<svg width="21" height="20" viewBox="0 0 21 20" fill="none" xmlns="http://www.w3.org/2000/svg">
<path d="M10.4937 18.3334C9.81182 18.3334 9.16049 18.0629 7.85776 17.5219C4.61502 16.1751 2.99365 15.5018 2.99365 14.3691V6.45388M10.4937 18.3334C11.1755 18.3334 11.8268 18.0629 13.1296 17.5219C16.3723 16.1751 17.9937 15.5018 17.9937 14.3691V6.45388M10.4937 18.3334V10.1406M2.99365 6.45388C2.99365 6.9571 3.66163 7.27488 4.99759 7.91042L7.43192 9.06852C8.93432 9.78327 9.68557 10.1406 10.4937 10.1406M2.99365 6.45388C2.99365 5.95065 3.66163 5.63289 4.99759 4.99734L6.74365 4.16669M17.9937 6.45388C17.9937 6.9571 17.3257 7.27488 15.9897 7.91042L13.5554 9.06852C12.053 9.78327 11.3017 10.1406 10.4937 10.1406M17.9937 6.45388C17.9937 5.95065 17.3257 5.63289 15.9897 4.99734L14.2437 4.16669M5.49365 10.9599L7.16032 11.7792" stroke="#808080" stroke-linecap="round" stroke-linejoin="round"/>
<path d="M10.4967 1.66669V7.49998M10.4967 7.49998C10.7159 7.50295 10.9322 7.34979 11.0917 7.1628L12.1602 5.8848M10.4967 7.49998C10.2852 7.49712 10.071 7.34475 9.90165 7.1628L8.8269 5.8848" stroke="#808080" stroke-linecap="round"/>
</svg>
