<svg width="24" height="25" viewBox="0 0 24 25" fill="none" xmlns="http://www.w3.org/2000/svg">
<path d="M17.7141 10.2143H10.8569M18.8569 4.5C19.4631 4.5 20.0445 4.74082 20.4732 5.16947C20.9018 5.59812 21.1426 6.17951 21.1426 6.78571V18.2143C21.1426 18.8205 20.9018 19.4019 20.4732 19.8305C20.0445 20.2592 19.4631 20.5 18.8569 20.5L15.4295 20.4989L12.8078 23.1206C12.611 23.3173 12.3492 23.4356 12.0714 23.453C11.7937 23.4705 11.5191 23.386 11.2992 23.2154L11.1918 23.1206L8.57008 20.4989L5.14265 20.5C4.53644 20.5 3.95506 20.2592 3.5264 19.8305C3.09775 19.4019 2.85693 18.8205 2.85693 18.2143V6.78571C2.85693 6.17951 3.09775 5.59812 3.5264 5.16947C3.95506 4.74082 4.53644 4.5 5.14265 4.5H18.8569Z" stroke="#808080" stroke-linecap="round" stroke-linejoin="round"/>
<path fill-rule="evenodd" clip-rule="evenodd" d="M7.42736 11.3572C7.99879 11.3572 8.57022 10.7857 8.57022 10.2143C8.57022 9.64287 7.99879 9.07144 7.42736 9.07144C6.85593 9.07144 6.28564 9.64287 6.28564 10.2143C6.28564 10.7857 6.85593 11.3572 7.42736 11.3572ZM7.42736 15.9286C7.99879 15.9286 8.57022 15.3572 8.57022 14.7857C8.57022 14.2143 7.99879 13.6429 7.42736 13.6429C6.85593 13.6429 6.28564 14.2143 6.28564 14.7857C6.28564 15.3572 6.85593 15.9286 7.42736 15.9286Z" fill="#808080"/>
<path d="M17.7141 14.7857H10.8569" stroke="#808080" stroke-linecap="round" stroke-linejoin="round"/>
</svg>
