<svg width="21" height="20" viewBox="0 0 21 20" fill="none" xmlns="http://www.w3.org/2000/svg">
<path d="M12.9937 12.5C12.9937 13.1903 13.5533 13.75 14.2437 13.75C14.934 13.75 15.4937 13.1903 15.4937 12.5C15.4937 11.8097 14.934 11.25 14.2437 11.25C13.5533 11.25 12.9937 11.8097 12.9937 12.5Z" stroke="#808080"/>
<path d="M12.9968 6.5021C8.47381 6.18868 4.74757 5.51753 2.99365 4.99976V12.551C2.99365 14.213 2.99365 15.044 3.50997 15.7217C4.02629 16.3995 4.73468 16.5909 6.15146 16.9737C8.44051 17.5922 10.8466 17.9605 13.0025 18.1712C15.2369 18.3895 16.3541 18.4987 17.1739 17.7495C17.9937 17.0004 17.9937 15.797 17.9937 13.39V11.712C17.9937 9.37454 17.9937 8.20584 17.3211 7.48049C16.6486 6.75514 15.4313 6.67079 12.9968 6.5021Z" stroke="#808080" stroke-linecap="round" stroke-linejoin="round"/>
<path d="M15.1818 6.66662C15.4966 5.48057 15.7814 3.32347 14.9328 2.25239C14.395 1.57352 13.5956 1.63874 12.8118 1.70767C8.69191 2.07001 5.78152 2.80605 4.15449 3.3061C3.45489 3.52112 2.99365 4.20431 2.99365 4.96699" stroke="#808080" stroke-linejoin="round"/>
</svg>
